<svg version="1.2" xmlns="http://www.w3.org/2000/svg" viewBox="0 0 122 150" width="122" height="150">
	<title>Proyecto nuevo</title>
	<style>
		.s0 { fill: #ffffff;stroke: #ffffff } 
	</style>
	<path id="Forma 1" class="s0" d="m81 79c0 0 10.4 9.3 15 30 4.7 21.3 11 31 11 31 0 0 1.9 6.8 14 6 0 0 1.5 4.4-10 4-11.5-0.4-11.3-0.6-10-6 1.3-5.4-12.2-21.7-12-34 0 0-11-13.7-19-20-3.8-3-3.8 17.3-18.3 22.4-4 1.4-19.9-21.8-32.7-24.4-12.8-2.6-12.6 4.6-18 1-5.4-3.6 27.7-20.9 21-6 0 0 22 10 26 17 4 7 2.2-34.9 19-43 3.3-1.6-5.2-20.9-7-21-1.8-0.1-9.3 0.8-14 4-1.9 1.3 0 17.3 3 22 3 4.7 5.4 14.1-3 7-3.7-3.1 1.4-5.1-3-15-2.5-5.6-4.7-12.1-4-15 0.7-2.9 28.9-17.1 31-21 2.1-3.9-3.1-1.6-4-8-0.4-3.1-7.2 1.6-10 5-2.8 3.4-8.2 8.3-5 1 3.2-7.3 1-10.9 6-12 5-1.1 9.5 1.7 13-2 2.3-2.4 10.3-2.6 12 4 0.6 2.5 1.8 3.7 2 6 0.2 2.3-1.2 2.4-3 7-0.5 1.4-4.3-1.5-2 5 0.9 2.4 4.2 9.9 6 11 1.8 1.1 0.7 4.3-3 7-1.7 1.3-1.5 4.6 9 0 3-1.3 10.8-2.5 7 2-1.3 1.5-16.7 3.8-17 8-0.3 4.2 0 27 0 27z"/>
</svg>